<svg width="36" height="37" viewBox="0 0 36 37" fill="none" xmlns="http://www.w3.org/2000/svg">
<path fill-rule="evenodd" clip-rule="evenodd" d="M14.8 11H21.2C23.851 11 26 13.149 26 15.8V22.2C26 24.851 23.851 27 21.2 27H14.8C12.149 27 10 24.851 10 22.2V15.8C10 13.149 12.149 11 14.8 11ZM14.8 12.6C13.0327 12.6 11.6 14.0327 11.6 15.8V22.2C11.6 23.9673 13.0327 25.4 14.8 25.4H21.2C22.9673 25.4 24.4 23.9673 24.4 22.2V15.8C24.4 14.0327 22.9673 12.6 21.2 12.6H14.8ZM18 23C15.7909 23 14 21.2091 14 19C14 16.7909 15.7909 15 18 15C20.2091 15 22 16.7909 22 19C22 21.2091 20.2091 23 18 23ZM18 21.4C19.3255 21.4 20.4 20.3255 20.4 19C20.4 17.6745 19.3255 16.6 18 16.6C16.6745 16.6 15.6 17.6745 15.6 19C15.6 20.3255 16.6745 21.4 18 21.4ZM22 15.8C21.5582 15.8 21.2 15.4418 21.2 15C21.2 14.5582 21.5582 14.2 22 14.2C22.4418 14.2 22.8 14.5582 22.8 15C22.8 15.4418 22.4418 15.8 22 15.8Z" fill="#75757F"/>
<rect x="0.5" y="1.01562" width="35" height="35" rx="17.5" stroke="#81818B" stroke-opacity="0.9"/>
</svg>
