<svg width="36" height="37" viewBox="0 0 36 37" fill="none" xmlns="http://www.w3.org/2000/svg">
<path d="M23.359 14.901C23.9874 14.4933 24.4035 13.9369 24.6072 13.2293C23.9959 13.572 23.387 13.8071 22.7788 13.9369C22.232 13.3156 21.5399 13 20.71 13C19.8988 13 19.2137 13.3008 18.6545 13.886C18.0984 14.4752 17.8176 15.1911 17.8176 16.0269C17.8176 16.2809 17.848 16.5077 17.9086 16.7C15.5163 16.6137 13.5362 15.565 11.9761 13.5465C11.7116 14.0405 11.5794 14.5435 11.5794 15.0637C11.5794 16.1329 12.0064 16.9803 12.8588 17.6024C12.3727 17.5589 11.9442 17.429 11.5794 17.2161C11.5794 17.9797 11.7917 18.6174 12.2172 19.1788C12.6441 19.7343 13.1924 20.0886 13.8621 20.2398C13.6194 20.3055 13.3635 20.3368 13.1007 20.3368C12.858 20.3368 12.6861 20.3154 12.5842 20.2685C12.7631 20.8907 13.1007 21.3953 13.5883 21.7816C14.0744 22.1695 14.6336 22.3742 15.262 22.3922C14.226 23.2511 13.0416 23.676 11.7015 23.676C11.3733 23.676 11.1408 23.671 11 23.6447C12.3198 24.5504 13.789 25 15.4144 25C17.078 25 18.5479 24.5546 19.8273 23.6637C21.1067 22.7777 22.0508 21.6846 22.6575 20.3976C23.2672 19.1122 23.569 17.7742 23.569 16.377V15.9924C24.1585 15.5239 24.6352 14.9963 25 14.4136C24.4711 14.6544 23.9244 14.818 23.359 14.901Z" fill="#75757F"/>
<rect x="0.5" y="1.01562" width="35" height="35" rx="17.5" stroke="#81818B" stroke-opacity="0.9"/>
</svg>
