<svg width="36" height="37" viewBox="0 0 36 37" fill="none" xmlns="http://www.w3.org/2000/svg">
<path d="M25.6657 14.8776C25.4817 14.1385 24.9395 13.5565 24.2511 13.3589C23.0033 13 18 13 18 13C18 13 12.9967 13 11.7489 13.3589C11.0605 13.5565 10.5183 14.1385 10.3343 14.8776C10 16.2172 10 19.0121 10 19.0121C10 19.0121 10 21.8071 10.3343 23.1467C10.5183 23.8857 11.0605 24.4435 11.7489 24.6411C12.9967 25 18 25 18 25C18 25 23.0033 25 24.2511 24.6411C24.9395 24.4435 25.4817 23.8857 25.6657 23.1467C26 21.8071 26 19.0121 26 19.0121C26 19.0121 26 16.2172 25.6657 14.8776V14.8776ZM16.3636 21.5497V16.4745L20.5454 19.0122L16.3636 21.5497V21.5497Z" fill="#75757F"/>
<rect x="0.5" y="1.01562" width="35" height="35" rx="17.5" stroke="#81818B" stroke-opacity="0.9"/>
</svg>
